<?xml version="1.0" encoding="UTF-8" standalone="no"?><svg contentScriptType="application/ecmascript" contentStyleType="text/css" height="71px" preserveAspectRatio="none" style="width:173px;height:71px;" version="1.1" viewBox="0 0 173 71" width="173px" xmlns="http://www.w3.org/2000/svg" xmlns:xlink="http://www.w3.org/1999/xlink" zoomAndPan="magnify"><defs/><g><text fill="#000000" font-family="sans-serif" font-size="12" lengthAdjust="spacingAndGlyphs" textLength="48" x="6" y="18.457">ログイン</text><path d="M59,10.0938 C57.895,10.0938 57,11.2128 57,12.5938 C57,13.9748 57.895,15.0938 59,15.0938 C60.105,15.0938 61,13.9748 61,12.5938 C61,11.2128 60.105,10.0938 59,10.0938 M56.906,15.0938 C55.836,15.1338 55,16.0138 55,17.0938 L55,18.0938 L63,18.0938 L63,17.0938 C63,16.0138 62.164,15.1338 61.094,15.0938 C60.554,15.7038 59.81,16.0938 59,16.0938 C58.19,16.0938 57.446,15.7038 56.906,15.0938 " fill="#000000" style="stroke: ; stroke-width: 0.0; stroke-dasharray: ;"/><text fill="#000000" font-family="sans-serif" font-size="12" lengthAdjust="spacingAndGlyphs" textLength="48" x="93" y="18.457">MyName</text><line style="stroke: #000000; stroke-width: 1.0;" x1="91" x2="166" y1="21.0938" y2="21.0938"/><line style="stroke: #000000; stroke-width: 1.0;" x1="91" x2="91" y1="18.0938" y2="20.0938"/><line style="stroke: #000000; stroke-width: 1.0;" x1="166" x2="166" y1="18.0938" y2="20.0938"/><text fill="#000000" font-family="sans-serif" font-size="12" lengthAdjust="spacingAndGlyphs" textLength="60" x="6" y="37.5508">パスワード</text><path d="M72.5,29.1875 C71.12,29.1875 70,30.3075 70,31.6875 C70,31.8475 70.033,31.9845 70.063,32.1255 L67,35.1885 L67,37.1885 L70,37.1885 L70,35.1885 L72,35.1885 L72,34.1885 L72.063,34.1255 C72.203,34.1555 72.34,34.1885 72.501,34.1885 C73.881,34.1885 75.001,33.0685 75.001,31.6885 C75.001,30.3085 73.881,29.1885 72.501,29.1885 M73.001,30.1885 C73.551,30.1885 74.001,30.6385 74.001,31.1885 C74.001,31.7385 73.551,32.1885 73.001,32.1885 C72.451,32.1885 72.001,31.7385 72.001,31.1885 C72.001,30.6385 72.451,30.1885 73.001,30.1885 " fill="#000000" style="stroke: ; stroke-width: 0.0; stroke-dasharray: ;"/><text fill="#000000" font-family="sans-serif" font-size="12" lengthAdjust="spacingAndGlyphs" textLength="20" x="93" y="37.5508">****</text><line style="stroke: #000000; stroke-width: 1.0;" x1="91" x2="166" y1="40.1875" y2="40.1875"/><line style="stroke: #000000; stroke-width: 1.0;" x1="91" x2="91" y1="37.1875" y2="39.1875"/><line style="stroke: #000000; stroke-width: 1.0;" x1="166" x2="166" y1="37.1875" y2="39.1875"/><rect fill="#EEEEEE" height="19.0938" rx="5" ry="5" style="stroke: #000000; stroke-width: 2.5;" width="77" x="8.5" y="46.6875"/><text fill="#000000" font-family="sans-serif" font-size="12" lengthAdjust="spacingAndGlyphs" textLength="60" x="10.5" y="61.1445">キャンセル</text><path d="M78.5,52.7813 C76.29,52.7813 74.5,54.5713 74.5,56.7813 C74.5,58.9913 76.29,60.7813 78.5,60.7813 C80.71,60.7813 82.5,58.9913 82.5,56.7813 C82.5,54.5713 80.71,52.7813 78.5,52.7813 M77,54.5623 L78.5,56.0623 L80,54.5623 L80.719,55.2813 L79.219,56.7813 L80.719,58.2813 L80,59.0003 L78.5,57.5003 L77,59.0003 L76.281,58.2813 L77.781,56.7813 L76.281,55.2813 L77,54.5623 " fill="#000000" style="stroke: ; stroke-width: 0.0; stroke-dasharray: ;"/><rect fill="#EEEEEE" height="19.0938" rx="5" ry="5" style="stroke: #000000; stroke-width: 2.5;" width="44" x="92.5" y="46.6875"/><text fill="#000000" font-family="sans-serif" font-size="12" lengthAdjust="spacingAndGlyphs" textLength="17" x="99.5" y="61.1445">OK</text><path d="M123.5,52.7813 L123.5,53.7813 L127.5,53.7813 L127.5,58.7813 L123.5,58.7813 L123.5,59.7813 L128.5,59.7813 L128.5,52.7813 L123.5,52.7813 M124.5,54.7813 L124.5,55.7813 L120.5,55.7813 L120.5,56.7813 L124.5,56.7813 L124.5,57.7813 L126.5,56.2813 L124.5,54.7813 " fill="#000000" style="stroke: ; stroke-width: 0.0; stroke-dasharray: ;"/></g></svg>