<?xml version="1.0" encoding="UTF-8" standalone="no"?><svg xmlns="http://www.w3.org/2000/svg" xmlns:xlink="http://www.w3.org/1999/xlink" contentScriptType="application/ecmascript" contentStyleType="text/css" height="78px" preserveAspectRatio="none" style="width:173px;height:78px;" version="1.1" viewBox="0 0 173 78" width="173px" zoomAndPan="magnify"><defs/><g><text fill="#000000" font-family="sans-serif" font-size="12" lengthAdjust="spacingAndGlyphs" textLength="48" x="6" y="19.9201">ログイン</text><path d="M59,12.3761 C57.895,12.3761 57,13.4951 57,14.8761 C57,16.2571 57.895,17.3761 59,17.3761 C60.105,17.3761 61,16.2571 61,14.8761 C61,13.4951 60.105,12.3761 59,12.3761 M56.906,17.3761 C55.836,17.4161 55,18.2961 55,19.3761 L55,20.3761 L63,20.3761 L63,19.3761 C63,18.2961 62.164,17.4161 61.094,17.3761 C60.554,17.9861 59.81,18.3761 59,18.3761 C58.19,18.3761 57.446,17.9861 56.906,17.3761 " fill="#000000" style="stroke: ; stroke-width: 0.0; stroke-dasharray: ;"/><text fill="#000000" font-family="sans-serif" font-size="12" lengthAdjust="spacingAndGlyphs" textLength="50" x="93" y="19.9201">MyName</text><line style="stroke: #000000; stroke-width: 1.0;" x1="91" x2="166" y1="23.3761" y2="23.3761"/><line style="stroke: #000000; stroke-width: 1.0;" x1="91" x2="91" y1="20.3761" y2="22.3761"/><line style="stroke: #000000; stroke-width: 1.0;" x1="166" x2="166" y1="20.3761" y2="22.3761"/><text fill="#000000" font-family="sans-serif" font-size="12" lengthAdjust="spacingAndGlyphs" textLength="60" x="6" y="41.2962">パスワード</text><path d="M72.5,33.7522 C71.12,33.7522 70,34.8722 70,36.2522 C70,36.4122 70.033,36.5492 70.063,36.6902 L67,39.7532 L67,41.7532 L70,41.7532 L70,39.7532 L72,39.7532 L72,38.7532 L72.063,38.6902 C72.203,38.7202 72.34,38.7532 72.501,38.7532 C73.881,38.7532 75.001,37.6332 75.001,36.2532 C75.001,34.8732 73.881,33.7532 72.501,33.7532 M73.001,34.7532 C73.551,34.7532 74.001,35.2032 74.001,35.7532 C74.001,36.3032 73.551,36.7532 73.001,36.7532 C72.451,36.7532 72.001,36.3032 72.001,35.7532 C72.001,35.2032 72.451,34.7532 73.001,34.7532 " fill="#000000" style="stroke: ; stroke-width: 0.0; stroke-dasharray: ;"/><text fill="#000000" font-family="sans-serif" font-size="12" lengthAdjust="spacingAndGlyphs" textLength="24" x="93" y="41.2962">****</text><line style="stroke: #000000; stroke-width: 1.0;" x1="91" x2="166" y1="44.7522" y2="44.7522"/><line style="stroke: #000000; stroke-width: 1.0;" x1="91" x2="91" y1="41.7522" y2="43.7522"/><line style="stroke: #000000; stroke-width: 1.0;" x1="166" x2="166" y1="41.7522" y2="43.7522"/><rect fill="#EEEEEE" height="21.3761" rx="5" ry="5" style="stroke: #000000; stroke-width: 2.5;" width="77" x="8.5" y="51.2522"/><text fill="#000000" font-family="sans-serif" font-size="12" lengthAdjust="spacingAndGlyphs" textLength="60" x="10.5" y="67.1723">キャンセル</text><path d="M78.5,59.6284 C76.29,59.6284 74.5,61.4184 74.5,63.6284 C74.5,65.8384 76.29,67.6284 78.5,67.6284 C80.71,67.6284 82.5,65.8384 82.5,63.6284 C82.5,61.4184 80.71,59.6284 78.5,59.6284 M77,61.4094 L78.5,62.9094 L80,61.4094 L80.719,62.1284 L79.219,63.6284 L80.719,65.1284 L80,65.8474 L78.5,64.3474 L77,65.8474 L76.281,65.1284 L77.781,63.6284 L76.281,62.1284 L77,61.4094 " fill="#000000" style="stroke: ; stroke-width: 0.0; stroke-dasharray: ;"/><rect fill="#EEEEEE" height="21.3761" rx="5" ry="5" style="stroke: #000000; stroke-width: 2.5;" width="44" x="92.5" y="51.2522"/><text fill="#000000" font-family="sans-serif" font-size="12" lengthAdjust="spacingAndGlyphs" textLength="17" x="99.5" y="67.1723">OK</text><path d="M123.5,59.6284 L123.5,60.6284 L127.5,60.6284 L127.5,65.6284 L123.5,65.6284 L123.5,66.6284 L128.5,66.6284 L128.5,59.6284 L123.5,59.6284 M124.5,61.6284 L124.5,62.6284 L120.5,62.6284 L120.5,63.6284 L124.5,63.6284 L124.5,64.6284 L126.5,63.1284 L124.5,61.6284 " fill="#000000" style="stroke: ; stroke-width: 0.0; stroke-dasharray: ;"/></g></svg>