<?xml version="1.0" encoding="UTF-8" standalone="no"?><svg xmlns="http://www.w3.org/2000/svg" xmlns:xlink="http://www.w3.org/1999/xlink" contentScriptType="application/ecmascript" contentStyleType="text/css" height="68px" preserveAspectRatio="none" style="width:174px;height:68px;" version="1.1" viewBox="0 0 174 68" width="174px" zoomAndPan="magnify"><defs/><g><text fill="#000000" font-family="sans-serif" font-size="12" lengthAdjust="spacingAndGlyphs" textLength="48" x="6" y="17.1387">ログイン</text><path d="M59,8.9688 C57.895,8.9688 57,10.0878 57,11.4688 C57,12.8498 57.895,13.9688 59,13.9688 C60.105,13.9688 61,12.8498 61,11.4688 C61,10.0878 60.105,8.9688 59,8.9688 M56.906,13.9688 C55.836,14.0088 55,14.8888 55,15.9688 L55,16.9688 L63,16.9688 L63,15.9688 C63,14.8888 62.164,14.0088 61.094,13.9688 C60.554,14.5788 59.81,14.9688 59,14.9688 C58.19,14.9688 57.446,14.5788 56.906,13.9688 " fill="#000000" style="stroke: ; stroke-width: 0.0; stroke-dasharray: ;"/><text fill="#000000" font-family="sans-serif" font-size="12" lengthAdjust="spacingAndGlyphs" textLength="52" x="94" y="17.1387">MyName</text><line style="stroke: #000000; stroke-width: 1.0;" x1="92" x2="167" y1="19.9688" y2="19.9688"/><line style="stroke: #000000; stroke-width: 1.0;" x1="92" x2="92" y1="16.9688" y2="18.9688"/><line style="stroke: #000000; stroke-width: 1.0;" x1="167" x2="167" y1="16.9688" y2="18.9688"/><text fill="#000000" font-family="sans-serif" font-size="12" lengthAdjust="spacingAndGlyphs" textLength="60" x="6" y="35.1074">パスワード</text><path d="M72.5,26.9375 C71.12,26.9375 70,28.0575 70,29.4375 C70,29.5975 70.033,29.7345 70.063,29.8755 L67,32.9385 L67,34.9385 L70,34.9385 L70,32.9385 L72,32.9385 L72,31.9385 L72.063,31.8755 C72.203,31.9055 72.34,31.9385 72.501,31.9385 C73.881,31.9385 75.001,30.8185 75.001,29.4385 C75.001,28.0585 73.881,26.9385 72.501,26.9385 M73.001,27.9385 C73.551,27.9385 74.001,28.3885 74.001,28.9385 C74.001,29.4885 73.551,29.9385 73.001,29.9385 C72.451,29.9385 72.001,29.4885 72.001,28.9385 C72.001,28.3885 72.451,27.9385 73.001,27.9385 " fill="#000000" style="stroke: ; stroke-width: 0.0; stroke-dasharray: ;"/><text fill="#000000" font-family="sans-serif" font-size="12" lengthAdjust="spacingAndGlyphs" textLength="24" x="94" y="35.1074">****</text><line style="stroke: #000000; stroke-width: 1.0;" x1="92" x2="167" y1="37.9375" y2="37.9375"/><line style="stroke: #000000; stroke-width: 1.0;" x1="92" x2="92" y1="34.9375" y2="36.9375"/><line style="stroke: #000000; stroke-width: 1.0;" x1="167" x2="167" y1="34.9375" y2="36.9375"/><rect fill="#EEEEEE" height="17.9688" rx="5" ry="5" style="stroke: #000000; stroke-width: 2.5;" width="78" x="8.5" y="44.4375"/><text fill="#000000" font-family="sans-serif" font-size="12" lengthAdjust="spacingAndGlyphs" textLength="60" x="10.5" y="57.5762">キャンセル</text><path d="M79.5,49.4063 C77.29,49.4063 75.5,51.1963 75.5,53.4063 C75.5,55.6163 77.29,57.4063 79.5,57.4063 C81.71,57.4063 83.5,55.6163 83.5,53.4063 C83.5,51.1963 81.71,49.4063 79.5,49.4063 M78,51.1873 L79.5,52.6873 L81,51.1873 L81.719,51.9063 L80.219,53.4063 L81.719,54.9063 L81,55.6253 L79.5,54.1253 L78,55.6253 L77.281,54.9063 L78.781,53.4063 L77.281,51.9063 L78,51.1873 " fill="#000000" style="stroke: ; stroke-width: 0.0; stroke-dasharray: ;"/><rect fill="#EEEEEE" height="17.9688" rx="5" ry="5" style="stroke: #000000; stroke-width: 2.5;" width="44" x="93.5" y="44.4375"/><text fill="#000000" font-family="sans-serif" font-size="12" lengthAdjust="spacingAndGlyphs" textLength="16" x="100.5" y="57.5762">OK</text><path d="M124.5,49.4063 L124.5,50.4063 L128.5,50.4063 L128.5,55.4063 L124.5,55.4063 L124.5,56.4063 L129.5,56.4063 L129.5,49.4063 L124.5,49.4063 M125.5,51.4063 L125.5,52.4063 L121.5,52.4063 L121.5,53.4063 L125.5,53.4063 L125.5,54.4063 L127.5,52.9063 L125.5,51.4063 " fill="#000000" style="stroke: ; stroke-width: 0.0; stroke-dasharray: ;"/></g></svg>